<?xml version="1.0" standalone="no"?>
<!DOCTYPE svg PUBLIC "-//W3C//DTD SVG 20010904//EN"
 "http://www.w3.org/TR/2001/REC-SVG-20010904/DTD/svg10.dtd">
<svg version="1.0" xmlns="http://www.w3.org/2000/svg"
 width="32.000000pt" height="32.000000pt" viewBox="0 0 32.000000 32.000000"
 preserveAspectRatio="xMidYMid meet">

<g transform="translate(0.000000,32.000000) scale(0.100000,-0.100000)"
fill="#000000" stroke="none">
<path d="M52 237 c-12 -13 -22 -34 -22 -48 0 -34 40 -89 89 -123 l41 -29 41
29 c50 34 89 89 89 125 0 30 -37 69 -66 69 -11 0 -30 -7 -42 -16 -20 -14 -24
-14 -44 0 -32 22 -61 20 -86 -7z m82 -13 c9 -8 16 -20 16 -25 0 -17 19 -9 25
10 13 41 80 38 91 -4 3 -12 -1 -36 -10 -53 -17 -33 -74 -82 -96 -82 -36 0
-110 83 -110 124 0 20 28 46 50 46 10 0 26 -7 34 -16z"/>
</g>
</svg>
